<?xml version="1.0" encoding="utf-8"?>
<svg xmlns="http://www.w3.org/2000/svg" viewBox="0 0 1024 1024" xmlns:bx="https://boxy-svg.com" width="1024px" height="1024px"><defs><bx:export><bx:file format="svg" path="App-Icon.svg"/><bx:file format="png" path="icon.png"/></bx:export></defs><ellipse style="fill: none; stroke: rgb(255, 235, 59); stroke-width: 16px;" cx="512" cy="772.732" rx="623.195" ry="573.021"/><rect x="774.813" y="180.492" width="216.342" height="909.31" style="fill: rgb(66, 165, 245);"/><path d="M 499.175 119.546 L 499.175 68.318 L 524.824 68.318 L 524.824 119.546 L 499.175 119.546 Z M 584.367 154.779 L 566.751 137.162 L 602.617 100.309 L 620.586 118.63 L 584.367 154.779 Z M 601.701 222.073 L 601.701 196.424 L 652.93 196.424 L 652.93 222.073 L 601.701 222.073 Z M 499.175 350.179 L 499.175 298.95 L 524.824 298.95 L 524.824 350.179 L 499.175 350.179 Z M 439.631 154.144 L 403.06 118.63 L 421.381 100.661 L 457.53 136.88 L 439.631 154.144 Z M 602.336 318.117 L 566.751 281.334 L 584.085 264 L 620.586 299.232 L 602.336 318.117 Z M 371.069 222.073 L 371.069 196.424 L 422.297 196.424 L 422.297 222.073 L 371.069 222.073 Z M 421.381 318.117 L 403.412 299.866 L 439.279 264 L 448.581 272.667 L 457.882 281.616 L 421.381 318.117 Z M 511.999 286.126 C 490.648 286.126 472.468 278.656 457.53 263.718 C 442.591 248.779 435.122 230.599 435.122 209.248 C 435.122 187.897 442.591 169.717 457.53 154.779 C 472.468 139.84 490.648 132.371 511.999 132.371 C 533.35 132.371 551.53 139.84 566.469 154.779 C 581.407 169.717 588.877 187.897 588.877 209.248 C 588.877 230.599 581.407 248.779 566.469 263.718 C 551.53 278.656 533.35 286.126 511.999 286.126 Z" style="stroke-width: 14.093; fill: rgb(255, 204, 128);"/><rect x="-130.49" y="383.23" width="344.012" height="760.531" style="fill: rgb(187, 222, 251);"/><rect x="455.521" y="496.191" width="210.7" height="591.063" style="fill: rgb(144, 202, 249);"/><rect x="181.882" y="552.235" width="299.665" height="652.832" style="fill: rgb(227, 242, 253);"/><rect x="973.848" y="511.396" width="164.681" height="592.937" style="fill: rgb(187, 222, 251);"/></svg>