<?xml version="1.0" encoding="utf-8"?>
<svg xmlns="http://www.w3.org/2000/svg" viewBox="0 0 300 75" xmlns:bx="https://boxy-svg.com" width="300px" height="75px"><defs><bx:export><bx:file format="svg" path="Text-Icon.svg"/><bx:file format="svg" href="#object-0" path="Unbetitelt 2.svg"/></bx:export></defs><g transform="matrix(1, 0, 0, 1, -70.5485, -124.607002)"><path d="M 75.352 181.616 C 75.42 181.983 75.501 182.34 75.595 182.689 C 83.381 175.583 93.218 169.092 104.734 163.396 C 135.278 148.287 177.434 138.951 224.071 138.951 C 270.708 138.951 312.864 148.287 343.408 163.396 C 351.898 167.596 359.476 172.227 365.992 177.219 L 365.992 175.998 C 359.55 171.115 352.121 166.591 343.852 162.5 C 313.2 147.338 270.816 137.951 224.071 137.951 C 177.326 137.951 134.942 147.338 104.29 162.5 C 92.932 168.119 83.158 174.556 75.352 181.616 Z" style="fill: rgb(255, 235, 59);"/><path d="M 98.455 181.242 Q 98.455 180.246 98.162 179.44 Q 97.869 178.635 97.078 177.932 Q 96.287 177.228 94.807 176.511 Q 93.328 175.793 90.925 175.002 Q 88.113 174.064 85.505 172.878 Q 82.898 171.691 80.847 170.095 Q 78.796 168.498 77.595 166.345 Q 76.394 164.191 76.394 161.32 Q 76.394 158.566 77.625 156.354 Q 78.855 154.143 81.067 152.575 Q 83.279 151.008 86.267 150.173 Q 89.255 149.338 92.8 149.338 Q 97.488 149.338 101.077 150.964 Q 104.666 152.59 106.702 155.563 Q 108.738 158.537 108.738 162.58 L 98.513 162.58 Q 98.513 160.969 97.854 159.738 Q 97.195 158.508 95.876 157.805 Q 94.558 157.102 92.566 157.102 Q 90.632 157.102 89.314 157.687 Q 87.996 158.273 87.322 159.255 Q 86.648 160.236 86.648 161.408 Q 86.648 162.375 87.19 163.151 Q 87.732 163.928 88.743 164.602 Q 89.753 165.275 91.204 165.891 Q 92.654 166.506 94.47 167.092 Q 97.869 168.176 100.52 169.509 Q 103.171 170.842 105.002 172.526 Q 106.834 174.211 107.786 176.35 Q 108.738 178.488 108.738 181.184 Q 108.738 184.055 107.625 186.281 Q 106.511 188.508 104.431 190.046 Q 102.351 191.584 99.451 192.375 Q 96.55 193.166 92.976 193.166 Q 89.695 193.166 86.516 192.331 Q 83.337 191.496 80.759 189.753 Q 78.181 188.01 76.643 185.27 Q 75.105 182.531 75.105 178.752 L 85.418 178.752 Q 85.418 180.627 85.916 181.916 Q 86.414 183.205 87.38 183.981 Q 88.347 184.758 89.753 185.095 Q 91.16 185.432 92.976 185.432 Q 94.939 185.432 96.14 184.86 Q 97.341 184.289 97.898 183.337 Q 98.455 182.385 98.455 181.242 Z" style="fill: rgb(144, 202, 249); text-wrap-mode: nowrap;"/><path d="M 134.693 149.924 L 134.693 192.58 L 124.41 192.58 L 124.41 149.924 Z M 147.525 149.924 L 147.525 157.863 L 111.871 157.863 L 111.871 149.924 Z" style="fill: rgb(144, 202, 249); text-wrap-mode: nowrap;"/><path d="M 166.451 158.889 L 156.051 192.58 L 145.006 192.58 L 160.68 149.924 L 167.682 149.924 Z M 175.065 192.58 L 164.635 158.889 L 163.287 149.924 L 170.377 149.924 L 186.139 192.58 Z M 174.654 176.672 L 174.654 184.611 L 152.77 184.611 L 152.77 176.672 Z" style="fill: rgb(144, 202, 249); text-wrap-mode: nowrap;"/><path d="M 218.6 184.67 L 218.6 192.58 L 195.866 192.58 L 195.866 184.67 Z M 199.528 149.924 L 199.528 192.58 L 189.245 192.58 L 189.245 149.924 Z M 215.67 166.857 L 215.67 174.504 L 195.866 174.504 L 195.866 166.857 Z M 218.688 149.924 L 218.688 157.863 L 195.866 157.863 L 195.866 149.924 Z" style="fill: rgb(144, 202, 249); text-wrap-mode: nowrap;"/><path d="M 222.818 149.924 L 239.605 149.924 Q 244.527 149.924 248.16 151.389 Q 251.792 152.853 253.77 155.725 Q 255.747 158.596 255.747 162.814 Q 255.747 166.477 254.605 168.937 Q 253.462 171.398 251.426 172.995 Q 249.39 174.592 246.695 175.617 L 243.326 177.521 L 229.234 177.521 L 229.175 169.582 L 239.605 169.582 Q 241.568 169.582 242.857 168.879 Q 244.146 168.176 244.805 166.872 Q 245.464 165.568 245.464 163.752 Q 245.464 161.906 244.79 160.588 Q 244.117 159.269 242.813 158.566 Q 241.509 157.863 239.605 157.863 L 233.101 157.863 L 233.101 192.58 L 222.818 192.58 Z M 246.167 192.58 L 236.734 173.713 L 247.632 173.654 L 257.183 192.141 L 257.183 192.58 Z" style="fill: rgb(144, 202, 249); text-wrap-mode: nowrap;"/><path d="M 272.885 149.924 L 272.885 192.58 L 262.631 192.58 L 262.631 149.924 Z" style="fill: rgb(144, 202, 249); text-wrap-mode: nowrap;"/><path d="M 303.237 149.924 L 313.52 149.924 L 313.52 177.785 Q 313.52 182.766 311.44 186.208 Q 309.36 189.65 305.61 191.408 Q 301.86 193.166 296.792 193.166 Q 291.782 193.166 287.988 191.408 Q 284.194 189.65 282.07 186.208 Q 279.946 182.766 279.946 177.785 L 279.946 149.924 L 290.258 149.924 L 290.258 177.785 Q 290.258 180.422 291.02 182.077 Q 291.782 183.732 293.247 184.494 Q 294.712 185.256 296.792 185.256 Q 298.901 185.256 300.337 184.494 Q 301.772 183.732 302.505 182.077 Q 303.237 180.422 303.237 177.785 Z" style="fill: rgb(144, 202, 249); text-wrap-mode: nowrap;"/><path d="M 325.064 149.924 L 333.443 149.924 L 342.965 179.602 L 352.486 149.924 L 360.865 149.924 L 346.363 192.58 L 339.566 192.58 Z M 319.967 149.924 L 328.638 149.924 L 330.25 182.619 L 330.25 192.58 L 319.967 192.58 Z M 357.291 149.924 L 365.992 149.924 L 365.992 192.58 L 355.679 192.58 L 355.679 182.619 Z" style="fill: rgb(144, 202, 249); text-wrap-mode: nowrap;" id="object-0"/><path d="M 266.848 134.683 L 266.848 131.048 L 268.668 131.048 L 268.668 134.683 L 266.848 134.683 Z M 272.893 137.183 L 271.643 135.933 L 274.188 133.318 L 275.463 134.618 L 272.893 137.183 Z M 274.123 141.958 L 274.123 140.138 L 277.758 140.138 L 277.758 141.958 L 274.123 141.958 Z M 266.848 151.048 L 266.848 147.413 L 268.668 147.413 L 268.668 151.048 L 266.848 151.048 Z M 262.623 137.138 L 260.028 134.618 L 261.328 133.343 L 263.893 135.913 L 262.623 137.138 Z M 274.168 148.773 L 271.643 146.163 L 272.873 144.933 L 275.463 147.433 L 274.168 148.773 Z M 257.758 141.958 L 257.758 140.138 L 261.393 140.138 L 261.393 141.958 L 257.758 141.958 Z M 261.328 148.773 L 260.053 147.478 L 262.598 144.933 L 263.258 145.548 L 263.918 146.183 L 261.328 148.773 Z M 267.758 146.503 C 266.243 146.503 264.953 145.973 263.893 144.913 C 262.833 143.853 262.303 142.563 262.303 141.048 C 262.303 139.533 262.833 138.243 263.893 137.183 C 264.953 136.123 266.243 135.593 267.758 135.593 C 269.273 135.593 270.563 136.123 271.623 137.183 C 272.683 138.243 273.213 139.533 273.213 141.048 C 273.213 142.563 272.683 143.853 271.623 144.913 C 270.563 145.973 269.273 146.503 267.758 146.503 Z" style="stroke-width: 1; fill: rgb(255, 204, 128);"/></g></svg>